<svg viewBox="0 0 420 730" xmlns="http://www.w3.org/2000/svg" fill="none" stroke="currentColor" stroke-linecap="round" stroke-linejoin="round" class="w-full h-full">
    <!-- Base Leaves (Vintage hatching and organic curves) -->
    <g stroke-width="1.2">
        <path d="M 180,720 C 140,680 90,660 60,670 C 40,680 30,710 45,725 C 60,740 130,740 180,720 Z" />
        <!-- Leaf Veins -->
        <path d="M 175,718 C 135,685 90,670 50,675" stroke-width="0.6" />
        <path d="M 165,712 C 125,675 80,665 48,685" stroke-width="0.3" stroke-dasharray="2,2" />
        <path d="M 170,724 C 130,695 90,680 55,690" stroke-width="0.3" />
        
        <path d="M 210,720 C 260,670 320,640 360,645 C 390,650 405,680 385,705 C 365,730 280,735 210,720 Z" />
        <!-- Leaf Veins -->
        <path d="M 215,718 C 265,675 320,655 365,660" stroke-width="0.6" />
        <path d="M 225,712 C 275,665 330,650 355,680" stroke-width="0.3" stroke-dasharray="2,3" />
        <path d="M 220,724 C 270,685 320,670 375,675" stroke-width="0.3" />

        <path d="M 195,715 C 190,660 185,610 190,580 C 195,610 205,660 205,715" stroke-width="1" />
        <path d="M 197,710 C 195,660 192,610 195,590" stroke-width="0.5" />
    </g>

    <!-- Aerial Roots (Classic vintage botanical element) -->
    <g stroke-width="0.8">
        <path d="M 180,715 C 160,705 150,725 140,710 C 130,690 120,700 115,720" />
        <path d="M 210,715 C 230,700 240,730 255,715 C 270,700 280,715 290,730" />
        <!-- Root stippling/texture -->
        <path d="M 175,712 C 158,703 148,720 138,708" stroke-width="0.3" stroke-dasharray="1,3" />
        <path d="M 215,712 C 232,698 242,725 258,710" stroke-width="0.3" stroke-dasharray="1,3" />
    </g>

    <!-- Main Stem (Arching and organic, with varied thickness) -->
    <path d="M 195,710 C 190,610 180,510 185,410 C 190,310 215,220 250,140 C 270,90 290,50 300,20" stroke-width="1.8" />
    <!-- Secondary stem texture line -->
    <path d="M 194,710 C 189,610 179,510 184,410 C 189,310 214,220 249,140" stroke-width="0.5" stroke-dasharray="2,4" />

    <!-- Bloom Nodes (Subtle swellings at joints) -->
    <circle cx="183" cy="460" r="2.5" />
    <circle cx="193" cy="350" r="2.5" />
    <circle cx="218" cy="240" r="2.5" />
    <circle cx="260" cy="120" r="2.5" />

    <!-- Branch Stems -->
    <g stroke-width="1.2">
        <path d="M 183,460 C 160,450 140,455 120,465" />
        <path d="M 193,350 C 220,335 245,330 270,335" />
        <path d="M 218,240 C 195,230 170,230 145,235" />
        <path d="M 260,120 C 285,110 305,105 320,115" />
    </g>

    <!-- Bloom 1 (Bottom Left at 120,465) -->
    <g transform="translate(120,465) scale(1.1)">
        <!-- Dorsal Sepal -->
        <path d="M 0,0 C -15,-20 -5,-45 0,-55 C 5,-45 15,-20 0,0" stroke-width="0.9" />
        <path d="M 0,-5 C 0,-25 0,-45 0,-50" stroke-width="0.4" stroke-dasharray="2,2" />
        <!-- Lateral Sepals -->
        <path d="M 0,0 C -20,10 -40,30 -45,45 C -30,35 -10,20 0,0" stroke-width="0.9" />
        <path d="M 0,0 C 20,10 40,30 45,45 C 30,35 10,20 0,0" stroke-width="0.9" />
        <!-- Lateral Sepal Veins -->
        <path d="M -5,5 C -20,15 -35,30 -40,40" stroke-width="0.3" />
        <path d="M 5,5 C 20,15 35,30 40,40" stroke-width="0.3" />
        <!-- Petals -->
        <path d="M 0,0 C -30,-15 -55,-10 -65,0 C -50,10 -25,10 0,0" stroke-width="0.9" />
        <path d="M 0,0 C 30,-15 55,-10 65,0 C 50,10 25,10 0,0" stroke-width="0.9" />
        <!-- Petal Veins -->
        <path d="M -10,-2 C -30,-8 -50,-5 -60,0" stroke-width="0.4" stroke-dasharray="1,3" />
        <path d="M 10,-2 C 30,-8 50,-5 60,0" stroke-width="0.4" stroke-dasharray="1,3" />
        <!-- Lip (Intricate vintage style) -->
        <path d="M 0,0 C -15,15 -25,35 0,45 C 25,35 15,15 0,0" stroke-width="0.9" />
        <!-- Lip details & stippling -->
        <path d="M -5,10 C -10,20 -5,30 0,35 C 5,30 10,20 5,10" stroke-width="0.5" />
        <circle cx="0" cy="15" r="0.8" />
        <circle cx="-3" cy="20" r="0.6" />
        <circle cx="3" cy="20" r="0.6" />
        <circle cx="0" cy="25" r="0.5" />
        <!-- Column -->
        <path d="M 0,0 C -5,-5 0,-10 0,-12 C 5,-10 5,-5 0,0" stroke-width="0.8" />
    </g>

    <!-- Bloom 2 (Middle Right at 270,335) -->
    <g transform="translate(270,335) scale(1.05) rotate(15)">
        <path d="M 0,0 C -15,-20 -5,-45 0,-55 C 5,-45 15,-20 0,0" stroke-width="0.9" />
        <path d="M 0,-5 C 0,-25 0,-45 0,-50" stroke-width="0.4" stroke-dasharray="2,2" />
        <path d="M 0,0 C -20,10 -40,30 -45,45 C -30,35 -10,20 0,0" stroke-width="0.9" />
        <path d="M 0,0 C 20,10 40,30 45,45 C 30,35 10,20 0,0" stroke-width="0.9" />
        <path d="M -5,5 C -20,15 -35,30 -40,40" stroke-width="0.3" />
        <path d="M 5,5 C 20,15 35,30 40,40" stroke-width="0.3" />
        <path d="M 0,0 C -30,-15 -55,-10 -65,0 C -50,10 -25,10 0,0" stroke-width="0.9" />
        <path d="M 0,0 C 30,-15 55,-10 65,0 C 50,10 25,10 0,0" stroke-width="0.9" />
        <path d="M -10,-2 C -30,-8 -50,-5 -60,0" stroke-width="0.4" stroke-dasharray="1,3" />
        <path d="M 10,-2 C 30,-8 50,-5 60,0" stroke-width="0.4" stroke-dasharray="1,3" />
        <path d="M 0,0 C -15,15 -25,35 0,45 C 25,35 15,15 0,0" stroke-width="0.9" />
        <path d="M -5,10 C -10,20 -5,30 0,35 C 5,30 10,20 5,10" stroke-width="0.5" />
        <circle cx="0" cy="15" r="0.8" />
        <circle cx="-3" cy="20" r="0.6" />
        <circle cx="3" cy="20" r="0.6" />
        <path d="M 0,0 C -5,-5 0,-10 0,-12 C 5,-10 5,-5 0,0" stroke-width="0.8" />
    </g>

    <!-- Bloom 3 (Upper Left at 145,235) -->
    <g transform="translate(145,235) scale(0.95) rotate(-10)">
        <path d="M 0,0 C -15,-20 -5,-45 0,-55 C 5,-45 15,-20 0,0" stroke-width="0.9" />
        <path d="M 0,-5 C 0,-25 0,-45 0,-50" stroke-width="0.4" stroke-dasharray="2,2" />
        <path d="M 0,0 C -20,10 -40,30 -45,45 C -30,35 -10,20 0,0" stroke-width="0.9" />
        <path d="M 0,0 C 20,10 40,30 45,45 C 30,35 10,20 0,0" stroke-width="0.9" />
        <path d="M -5,5 C -20,15 -35,30 -40,40" stroke-width="0.3" />
        <path d="M 5,5 C 20,15 35,30 40,40" stroke-width="0.3" />
        <path d="M 0,0 C -30,-15 -55,-10 -65,0 C -50,10 -25,10 0,0" stroke-width="0.9" />
        <path d="M 0,0 C 30,-15 55,-10 65,0 C 50,10 25,10 0,0" stroke-width="0.9" />
        <path d="M -10,-2 C -30,-8 -50,-5 -60,0" stroke-width="0.4" stroke-dasharray="1,3" />
        <path d="M 10,-2 C 30,-8 50,-5 60,0" stroke-width="0.4" stroke-dasharray="1,3" />
        <path d="M 0,0 C -15,15 -25,35 0,45 C 25,35 15,15 0,0" stroke-width="0.9" />
        <path d="M -5,10 C -10,20 -5,30 0,35 C 5,30 10,20 5,10" stroke-width="0.5" />
        <circle cx="0" cy="15" r="0.8" />
        <path d="M 0,0 C -5,-5 0,-10 0,-12 C 5,-10 5,-5 0,0" stroke-width="0.8" />
    </g>

    <!-- Top Buds (Vintage tight details) -->
    <g transform="translate(320,115) scale(0.9) rotate(30)">
        <path d="M 0,0 C -10,-10 -20,-20 -15,-30 C -5,-35 10,-20 0,0" stroke-width="0.9" />
        <path d="M 0,0 C 10,-10 20,-20 15,-30 C 5,-35 -10,-20 0,0" stroke-width="0.9" />
        <path d="M -5,-10 C -10,-18 -10,-25 -8,-28" stroke-width="0.4" />
        <path d="M 5,-10 C 10,-18 10,-25 8,-28" stroke-width="0.4" />
    </g>
    <g transform="translate(300,20) scale(0.7) rotate(15)">
        <path d="M 0,0 C -10,-10 -20,-20 -15,-30 C -5,-35 10,-20 0,0" stroke-width="0.9" />
        <path d="M 0,0 C 10,-10 20,-20 15,-30 C 5,-35 -10,-20 0,0" stroke-width="0.9" />
    </g>
    
    <!-- Botanical stippling overall overlay (scattered) -->
    <g stroke-width="0" fill="currentColor">
        <circle cx="190" cy="650" r="0.6" />
        <circle cx="185" cy="620" r="0.5" />
        <circle cx="195" cy="580" r="0.7" />
        <circle cx="180" cy="520" r="0.6" />
        <circle cx="190" cy="480" r="0.6" />
        <circle cx="185" cy="420" r="0.5" />
        <circle cx="205" cy="380" r="0.7" />
        <circle cx="195" cy="300" r="0.5" />
        <circle cx="230" cy="270" r="0.6" />
        <circle cx="240" cy="180" r="0.5" />
        <circle cx="270" cy="80" r="0.6" />
    </g>
</svg>